# xmcd CD database file
#
# Track frame offsets:
#	150
#	25724
#	43157
#	61082
#	86591
#	103975
#	121788
#	140900
#	158396
#	174999
#	192458
#	210469
#
# Disc length: 3018 seconds
#
# Revision: 0
# Processed by: cddbd v1.5PL3 Copyright (c) Steve Scherf et al.
# Submitted via: CDex 1.50beta8
#
DISCID=9d0bc80c
DTITLE=AQUARIUS and ラッパ我リヤ and FIRE BALL - 連動 and NORINA and LIGHT UP THE FIRE
DYEAR=2003
DGENRE=Hip-Hop
TTITLE0=連動 feat. T-ZONE, GORE-TEX, KEN WHEEL, MIKRIS, YOHEY, BASS
TTITLE1=アタッテクダケ 〜トツゲキのテーマ〜 feat. TOKONA-X and TAD'S A.C.
TTITLE2=ノリコム Performed by DELI
TTITLE3=連動(INST.)
TTITLE4=アタッテクダケ 〜トツゲキのテーマ〜(INST.)
TTITLE5=ノリコム(INST.)
TTITLE6=NORINA
TTITLE7=WARRIORS
TTITLE8=BATTLE WARRIORS
TTITLE9=LIGHT UP THE FIRE〜FB：着火のテーマ〜
TTITLE10=LION DANCE
TTITLE11=LIGHT UP THE FIRE〜FB:着火のテーマ〜(DJ WATARAI REMIX)
EXTD=YEAR: 2003
EXTT0=
EXTT1=
EXTT2=
EXTT3=
EXTT4=
EXTT5=
EXTT6=
EXTT7=
EXTT8=
EXTT9=
EXTT10=
EXTT11=
PLAYORDER=
